<?xml version="1.0" encoding="UTF-8"?>
<svg id="Layer_1" xmlns="http://www.w3.org/2000/svg" version="1.1" viewBox="0 0 1920 1080">
  <!-- Generator: Adobe Illustrator 29.1.0, SVG Export Plug-In . SVG Version: 2.1.0 Build 142)  -->
  <defs>
    <style>
      .st0 {
        fill: #39b54a;
      }

      .st1 {
        fill: #8cc63f;
      }

      .st2 {
        fill: #009245;
      }

      .st3 {
        fill: #006838;
      }

      .st4 {
        fill: #0071bc;
        stroke: #006837;
        stroke-miterlimit: 10;
      }

      .st5 {
        fill: #006837;
      }
    </style>
  </defs>
  <path class="st5" d="M992,1084.16H0v-257.91c143.4,44.93,307.08,22.7,452.56,55.75,10.94,2.49,21.78,5.28,32.5,8.45,20.03,5.9,39.64,13.08,58.73,21.88,37.04,17.07,71.01,39.85,109.85,53.2,51.94,17.84,109.07,17.66,163.17,28.96,15.83,3.31,31.41,7.64,46.59,12.91,29.59,10.27,57.68,24.14,83.3,41.11,16.17,10.69,31.35,22.63,45.3,35.65Z"/>
  <path class="st3" d="M1920,786.28v298.72H877c23.23-11.88,46.47-23.76,69.7-35.65,25.31-12.95,50.61-25.9,75.93-38.85,31.07-15.89,62.79-32.02,98.32-39.33,20.69-4.25,42.1-5.38,63.3-7.24,64.08-5.63,127.24-18.15,187.41-37.07,15.35-4.81,30.51-10.07,45.44-15.72,39.29-14.88,77.15-32.62,118.23-43.8,33.45-9.11,68.47-13.71,102.35-21.71,67.28-15.91,132.78-45.45,199.99-56.72,27.09-4.55,54.46-6.11,82.33-2.62Z"/>
  <path class="st5" d="M1909.89,798.81c-18.61-2.94-37.22-5.88-55.83-8.82-5.33-.84-10.66-1.69-15.99-2.53-1.89-.3-2.7,2.59-.8,2.89,18.61,2.95,37.22,5.89,55.83,8.83,5.33.84,10.66,1.68,15.99,2.53,1.89.3,2.7-2.59.8-2.89h0Z"/>
  <path class="st5" d="M1285.33,907.22c-.06.03-.12.05-.18.08l.36-.15c-.53.22-1.07.44-1.6.67-.17.09-.32.22-.42.39-.13.14-.22.31-.27.51-.06.2-.07.4-.03.6,0,.2.07.39.18.56l.23.3c.19.19.41.31.66.39l.4.05c.27,0,.52-.07.76-.2.06-.03.12-.05.18-.08l-.36.15c.53-.22,1.07-.44,1.6-.67.17-.09.32-.22.42-.39.13-.14.22-.31.27-.51.06-.2.07-.4.03-.6,0-.2-.07-.39-.18-.56l-.23-.3c-.19-.19-.41-.31-.66-.39l-.4-.05c-.27,0-.52.07-.76.2h0Z"/>
  <g>
    <path class="st0" d="M931.4,997.72c-8.66,1.69-17.39,3.28-26.17,4.78h-.01c-11.99,2.05-24.08,3.94-36.19,5.74-.65-.18-1.3-.35-1.96-.53-4.06-1.1-8.14-2.15-12.25-3.17-.02,0-.04-.02-.06-.02-19.73-4.93-39.85-9.09-60.23-12.41-51.88-8.47-105.5-11.77-158.03-17.88-35.07-4.07-69.65-9.38-102.91-18.31-62.11-16.67-116.44-45.13-175.67-66.45-30.53-10.99-61.89-19.97-93.92-27.33,3.77-.32,7.53-.62,11.31-.91h.01c84.91-6.6,170.63-6.82,255.1,1.64,35.77,3.59,71.31,8.84,106.08,15.77,109.77,21.82,211.84,60.19,289.12,114.92,1.94,1.37,3.87,2.75,5.78,4.15Z"/>
    <path class="st5" d="M931,996.27c-10.63,2.07-21.29,3.98-31.97,5.76-5.81.97-11.62,1.9-17.44,2.8-2.81.44-5.61.86-8.42,1.29-3.31.5-5.53.19-8.75-.66-21.45-5.67-43.16-10.34-65.04-14.04-44.99-7.62-90.53-11.13-135.9-15.75s-90.91-10.29-134.92-22.66c-41.77-11.75-81.51-29.26-121.5-45.85-41.04-17.02-82.74-31.65-125.88-42.43-5.58-1.39-11.18-2.73-16.78-4.02l-.4,2.95c47.77-4.01,95.71-6.07,143.65-5.71,48.43.36,96.89,3.11,144.99,8.89,46.55,5.59,92.79,14.04,138.21,25.7,41.78,10.73,82.95,24.18,122.64,41.12,36.48,15.57,71.82,34.1,104.6,56.49,4.23,2.89,8.42,5.85,12.56,8.87,1.56,1.14,3.06-1.46,1.51-2.59-32.29-23.56-67.4-43.08-103.8-59.5-38.93-17.56-79.4-31.66-120.56-42.99-44.59-12.28-90.07-21.35-135.89-27.63-48.11-6.6-96.62-10.1-145.16-11.1-48.75-1.01-97.55.51-146.17,4.13-5.53.41-11.05.85-16.57,1.31-1.59.13-2.15,2.54-.4,2.95,43.77,10.09,86.44,23.62,128.07,40.46,40.41,16.35,80.15,34.53,121.81,47.58,43.12,13.51,87.83,20.26,132.64,25.19,46.16,5.08,92.56,8.3,138.5,15.24,22.61,3.42,45.07,7.82,67.27,13.29,5.1,1.26,10.19,2.57,15.27,3.93,2.17.58,3.93.15,6.16-.19,3.03-.46,6.05-.92,9.07-1.39,10.89-1.69,21.77-3.48,32.62-5.42,5.6-1,11.2-2.05,16.78-3.14,1.89-.37,1.09-3.26-.8-2.89Z"/>
  </g>
  <path class="st5" d="M911.81,1006.86c-2.73-2.75-5.51-5.45-8.35-8.1-.57-.54-1.56-.61-2.12,0s-.61,1.55,0,2.12c2.84,2.64,5.62,5.34,8.35,8.1.55.56,1.58.6,2.12,0s.59-1.53,0-2.12h0Z"/>
  <g>
    <path class="st1" d="M1371.66,927.39c-37.4,11.71-75.95,20.95-115.16,27.62-23.87,4.06-48,7.16-72.25,9.29-21.2,1.85-42.61,2.99-63.3,7.22-35.53,7.28-67.25,23.33-98.32,39.16-25.08,12.78-50.15,25.55-75.22,38.33-.24.12-.47.24-.71.36-25.62-16.89-53.71-30.7-83.3-40.93.62-.12,1.25-.23,1.87-.36.6-.11,1.2-.23,1.8-.34,11.88-2.29,23.71-4.79,35.33-7.68.06-.02.12-.03.18-.05,7.78-1.93,15.48-4.06,23.04-6.42,15.77-4.92,31-10.88,45.3-18.4,22.67-11.92,42.34-27.44,64.74-39.72,46.27-25.33,102.54-35.64,158.04-35.5,4.21,0,8.41.08,12.61.2,16.83.51,33.56,1.91,50.19,3.98,9.89,1.24,19.76,2.71,29.59,4.39.35.06.7.12,1.05.18,28.19,4.85,56.06,11.32,83.58,18.46.31.08.63.16.94.24Z"/>
    <path class="st5" d="M1371.26,925.94c-56.63,17.69-115.05,29.59-174.07,35.62-28.94,2.96-58.33,3.6-86.65,10.8-26.49,6.74-51.42,18.25-75.77,30.47-29.7,14.91-59.2,30.2-88.83,45.22h1.51c-26.05-17.12-54.22-30.86-83.66-41.08v2.89c34.28-6.49,68.75-14.5,100.37-29.64s56.33-36.75,86.97-50.89c29.97-13.84,62.58-21.7,95.31-25.37,34.62-3.88,69.6-3,104.18.96,36.34,4.16,72.22,11.72,107.67,20.6,4.33,1.08,8.64,2.19,12.96,3.31,1.87.48,2.67-2.41.8-2.89-35.37-9.14-71.04-17.23-107.25-22.22-34.84-4.8-70.13-6.75-105.23-4-32.85,2.57-65.63,9.06-96.34,21.21-15.22,6.02-29.67,13.53-43.54,22.2-14.5,9.07-28.49,18.97-43.39,27.39-30.89,17.45-65.48,26.8-100.02,33.85-4.42.9-8.85,1.77-13.29,2.61-1.57.3-1.28,2.45,0,2.89,29.2,10.14,57.11,23.8,82.94,40.78.46.3,1.05.24,1.51,0,26.68-13.53,53.29-27.18,79.95-40.73,24.26-12.34,48.82-24.43,75-32.2,28.31-8.4,57.61-9.65,86.82-12.38s58.26-6.86,87.05-12.41c32.34-6.23,64.33-14.28,95.77-24.1,1.84-.57,1.05-3.47-.8-2.89Z"/>
  </g>
  <path class="st5" d="M1381.22,927.82c-3.05-.81-6.1-1.62-9.16-2.41-.76-.2-1.66.25-1.85,1.05s.24,1.63,1.05,1.85c3.06.79,6.11,1.6,9.16,2.41.76.2,1.66-.25,1.85-1.05s-.24-1.63-1.05-1.85h0Z"/>
  <path class="st5" d="M863,1006.8c-9.86,1.88-19.75,3.63-29.64,5.38-1.9.34-1.09,3.23.8,2.89,9.89-1.75,19.78-3.5,29.64-5.38,1.89-.36,1.09-3.25-.8-2.89h0Z"/>
  <g>
    <path class="st2" d="M1837.67,788.9c-67.21,11.26-132.71,40.81-199.99,56.72-33.88,8.01-68.9,12.6-102.35,21.71-41.08,11.19-78.94,28.92-118.23,43.8-14.93,5.65-30.09,10.9-45.44,15.72-27.83-7.25-56.01-13.85-84.52-18.77-.35.14-.7.29-1.05.44-9.83-1.67-19.7-3.15-29.59-4.39-16.63-2.07-33.36-3.47-50.19-3.98-4.2-.13-8.4-.2-12.61-.2,20.1-7.87,40.61-14.99,61.46-21.36,60.93-18.61,124.68-30.77,189.24-35.99,36.24-15.09,72.48-30.19,108.73-45.28,29.09-12.11,58.76-24.38,90.86-28.58,35.77-4.68,72.18.96,107.75,6.58,28.64,4.53,57.29,9.06,85.93,13.58Z"/>
    <path class="st5" d="M1837.27,787.46c-42.31,7.16-83.02,21.1-123.71,34.37-20.6,6.72-41.26,13.31-62.22,18.83-20.98,5.52-42.28,9.54-63.57,13.61-21.49,4.11-42.95,8.45-63.91,14.81-20.33,6.16-40.15,13.84-59.84,21.76-19.93,8.02-39.78,16.25-60,23.53-5.03,1.81-10.07,3.57-15.13,5.28s-10.51,3.99-15.85,5.19c-2.73.61-5.58-.64-8.24-1.32-2.83-.72-5.66-1.44-8.5-2.15-5.27-1.31-10.55-2.6-15.84-3.84-11-2.59-22.05-5.02-33.13-7.23-5.34-1.06-10.7-2.08-16.06-3.03-1.25-.22-2.65-.65-3.92-.68-.91-.02-1.78.21-2.69.15-2.86-.19-5.78-.95-8.61-1.39-21.63-3.35-43.43-5.7-65.3-6.56-5.67-.22-11.35-.35-17.03-.36l.4,2.95c39.94-15.61,81.05-28.17,122.86-37.71,20.99-4.79,42.15-8.82,63.42-12.09,10.85-1.67,21.73-3.14,32.64-4.4,5.32-.62,10.65-1.19,15.98-1.71,2.46-.24,4.93-.47,7.39-.69,2.66-.24,5.61-.12,8.21-.71,2.26-.51,4.56-1.84,6.7-2.73,2.76-1.15,5.51-2.3,8.27-3.44,5.12-2.13,10.24-4.27,15.36-6.4,10.24-4.27,20.48-8.53,30.73-12.8,20.09-8.37,40.15-16.83,60.3-25.08,18.88-7.73,38.04-15,57.95-19.67,21.43-5.02,43.3-6.23,65.23-4.92,22.16,1.32,44.09,4.87,65.99,8.34s43.81,6.93,65.71,10.39c5.48.86,10.95,1.73,16.43,2.59,1.89.3,2.7-2.59.8-2.89-22.12-3.49-44.23-6.99-66.34-10.48-21.61-3.42-43.22-7.15-64.99-9.46-21.57-2.29-43.39-3-64.93.02-20.53,2.88-40.4,9.12-59.73,16.48s-39.71,16.17-59.49,24.41-41.36,17.23-62.05,25.84c-5.09,2.12-10.15,4.61-15.36,6.4-2.77.95-5.9.86-8.8,1.12-2.67.24-5.34.49-8.01.76-10.73,1.06-21.43,2.32-32.11,3.76-21.23,2.86-42.35,6.47-63.32,10.83-42.29,8.8-83.97,20.65-124.5,35.61-5.07,1.87-10.12,3.8-15.15,5.76-1.5.58-1.4,2.94.4,2.95,22.44.04,44.88,1.79,67.13,4.74,5.84.77,11.67,1.63,17.49,2.56,2.4.38,4.96,1.13,7.38,1.22.98.04,1.92-.18,2.91-.11,1.44.11,2.92.52,4.33.77,11.13,2.02,22.22,4.28,33.26,6.73s21.59,4.98,32.34,7.68c2.63.66,5.26,1.33,7.89,2.01,2.35.61,4.45,1.6,6.82.88,5.13-1.54,10.2-3.27,15.28-4.98,20.53-6.92,40.68-14.8,60.75-22.93,19.82-8.03,39.63-16.14,59.88-23.05,20.45-6.97,41.3-12.23,62.47-16.5,21.55-4.35,43.25-8,64.67-12.98,21.08-4.9,41.82-11.13,62.42-17.71,40.89-13.05,81.46-27.69,123.56-36.45,5.25-1.09,10.51-2.08,15.8-2.97,1.9-.32,1.09-3.21-.8-2.89Z"/>
  </g>
  <path class="st4" d="M1255.16,878.59c-20.85,6.37-41.36,13.49-61.46,21.36-55.5-.13-111.77,10.17-158.04,35.5-22.4,12.28-42.07,27.79-64.74,39.72-14.3,7.52-29.53,13.47-45.3,18.4-77.28-54.73-179.35-93.1-289.12-114.92v-.06h618.66Z"/>
</svg>