<?xml version="1.0" encoding="UTF-8"?>
<svg id="Layer_1" xmlns="http://www.w3.org/2000/svg" version="1.1" viewBox="0 0 1920 1080">
  <!-- Generator: Adobe Illustrator 29.1.0, SVG Export Plug-In . SVG Version: 2.1.0 Build 142)  -->
  <defs>
    <style>
      .st0 {
        fill: #39b54a;
      }

      .st1 {
        fill: #0071bc;
      }

      .st2 {
        fill: #8cc63f;
      }

      .st3 {
        fill: #009fff;
      }

      .st4 {
        fill: #009245;
      }

      .st5 {
        fill: #006838;
      }

      .st6 {
        fill: #666;
      }

      .st7 {
        fill: #006837;
      }

      .st8 {
        fill: #999;
      }

      .st9 {
        fill: #3f7fd3;
      }

      .st10 {
        fill: gray;
      }
    </style>
  </defs>
  <path class="st7" d="M992,1084.16H0v-257.91c143.4,44.93,307.08,22.7,452.56,55.75,10.94,2.49,21.78,5.28,32.5,8.45,20.03,5.9,39.64,13.08,58.73,21.88,37.04,17.07,71.01,39.85,109.85,53.2,51.94,17.84,109.07,17.66,163.17,28.96,15.83,3.31,31.41,7.64,46.59,12.91,29.59,10.27,57.68,24.14,83.3,41.11,16.17,10.69,31.35,22.63,45.3,35.65Z"/>
  <path class="st5" d="M1920,786.28v298.72H877c23.23-11.88,46.47-23.76,69.7-35.65,25.31-12.95,50.61-25.9,75.93-38.85,31.07-15.89,62.79-32.02,98.32-39.33,20.69-4.25,42.1-5.38,63.3-7.24,64.08-5.63,127.24-18.15,187.41-37.07,15.35-4.81,30.51-10.07,45.44-15.72,39.29-14.88,77.15-32.62,118.23-43.8,33.45-9.11,68.47-13.71,102.35-21.71,67.28-15.91,132.78-45.45,199.99-56.72,27.09-4.55,54.46-6.11,82.33-2.62Z"/>
  <path class="st7" d="M1909.89,798.81c-18.61-2.94-37.22-5.88-55.83-8.82-5.33-.84-10.66-1.69-15.99-2.53-1.89-.3-2.7,2.59-.8,2.89,18.61,2.95,37.22,5.89,55.83,8.83,5.33.84,10.66,1.68,15.99,2.53,1.89.3,2.7-2.59.8-2.89h0Z"/>
  <path class="st7" d="M1285.33,907.22c-.06.03-.12.05-.18.08l.36-.15c-.53.22-1.07.44-1.6.67-.17.09-.32.22-.42.39-.13.14-.22.31-.27.51-.06.2-.07.4-.03.6,0,.2.07.39.18.56l.23.3c.19.19.41.31.66.39l.4.05c.27,0,.52-.07.76-.2.06-.03.12-.05.18-.08l-.36.15c.53-.22,1.07-.44,1.6-.67.17-.09.32-.22.42-.39.13-.14.22-.31.27-.51.06-.2.07-.4.03-.6,0-.2-.07-.39-.18-.56l-.23-.3c-.19-.19-.41-.31-.66-.39l-.4-.05c-.27,0-.52.07-.76.2h0Z"/>
  <g>
    <path class="st0" d="M931.4,997.72c-8.66,1.69-17.39,3.28-26.17,4.78,0,0-.01-.01-.01,0-11.99,2.05-24.08,3.95-36.19,5.75-.65-.18-1.3-.36-1.96-.53-4.06-1.1-8.14-2.15-12.25-3.18-.02,0-.04-.01-.06-.01-19.73-4.93-39.85-9.09-60.23-12.41-51.88-8.48-105.5-11.78-158.03-17.88-35.07-4.07-69.65-9.38-102.91-18.31-62.11-16.67-116.44-45.13-175.67-66.45-26.84-9.66-54.33-17.77-82.35-24.59-3.85-.94-7.7-1.85-11.57-2.74,3.77-.32,7.53-.62,11.31-.91h.01c5.68-.44,11.37-.86,17.06-1.24,79.32-5.35,159.22-5.02,238.04,2.88,35.77,3.59,71.31,8.84,106.08,15.77,43.62,8.67,86.02,19.96,126.14,33.85,26.57,9.19,52.13,19.52,76.37,31,31.28,14.79,60.38,31.49,86.61,50.07,1.94,1.37,3.87,2.75,5.78,4.15Z"/>
    <path class="st7" d="M931,996.27c-10.63,2.07-21.29,3.98-31.97,5.76-5.81.97-11.62,1.9-17.44,2.8-2.81.44-5.61.87-8.42,1.29-3.05.46-5.18.28-8.14-.5-21.64-5.75-43.57-10.47-65.65-14.21-44.78-7.58-90.1-11.1-135.25-15.69-45.38-4.61-90.93-10.24-134.97-22.56-41.79-11.69-81.55-29.19-121.54-45.78-41.29-17.13-83.23-31.87-126.64-42.7-5.52-1.38-11.04-2.7-16.58-3.98l-.4,2.95c45.57-3.84,91.31-5.87,137.05-5.75,46.26.13,92.54,2.45,138.53,7.43s91.36,12.69,136.17,23.45,86.03,23.66,127.29,40.51c40.2,16.42,79.17,36.33,115.05,60.85,4.23,2.89,8.42,5.85,12.56,8.87,1.56,1.14,3.06-1.46,1.51-2.59-35.01-25.56-73.36-46.36-113.08-63.6-40.47-17.57-82.48-31.52-125.18-42.6-44.29-11.49-89.36-19.88-134.75-25.6-46.32-5.83-92.99-8.82-139.66-9.56s-93.59.84-140.24,4.37c-5.09.38-10.17.78-15.25,1.21-1.59.13-2.15,2.54-.4,2.95,44.17,10.19,87.2,23.89,129.2,40.92,40.21,16.31,79.79,34.36,121.27,47.3,43.14,13.46,87.88,20.17,132.69,25.08,46.17,5.06,92.56,8.29,138.49,15.27,22.4,3.41,44.64,7.78,66.64,13.2,5.1,1.26,10.2,2.56,15.27,3.93,2.16.58,3.95.15,6.16-.18,3.03-.46,6.05-.92,9.07-1.39,10.89-1.69,21.77-3.48,32.62-5.42,5.6-1,11.2-2.05,16.78-3.14,1.89-.37,1.09-3.26-.8-2.89Z"/>
  </g>
  <path class="st7" d="M911.81,1006.86c-2.73-2.75-5.51-5.45-8.35-8.1-.57-.54-1.56-.61-2.12,0s-.61,1.55,0,2.12c2.84,2.64,5.62,5.34,8.35,8.1.55.56,1.58.6,2.12,0s.59-1.53,0-2.12h0Z"/>
  <g>
    <path class="st2" d="M1371.66,927.39c-37.4,11.71-75.95,20.95-115.16,27.62-23.87,4.06-48,7.16-72.25,9.28-21.2,1.85-42.61,2.99-63.3,7.22-35.53,7.28-67.25,23.33-98.32,39.16-25.08,12.77-50.15,25.54-75.22,38.32h0c-.24.12-.46.25-.7.36-25.62-16.89-53.71-30.7-83.3-40.93.62-.12,1.24-.23,1.86-.36h.01c.6-.11,1.2-.22,1.8-.34,11.88-2.29,23.71-4.79,35.33-7.68.06-.02.12-.03.18-.05,7.78-1.93,15.48-4.06,23.04-6.42,15.77-4.93,31-10.88,45.3-18.4,17.94-9.43,34-21.12,51.03-31.67,4.48-2.79,9.04-5.49,13.71-8.05,17.93-9.82,37.37-17.38,57.68-22.95,32.09-8.8,66.37-12.64,100.36-12.55,4.21,0,8.41.07,12.61.2,16.83.51,33.56,1.91,50.19,3.98,9.89,1.24,19.76,2.71,29.59,4.38.35.06.7.12,1.05.18,28.19,4.85,56.05,11.32,83.57,18.46h.01c.31.08.63.16.94.24Z"/>
    <path class="st7" d="M1371.26,925.94c-56.95,17.79-115.7,29.73-175.06,35.72-28.93,2.92-58.27,3.61-86.56,10.93-26.46,6.84-51.35,18.41-75.68,30.65-29.39,14.78-58.87,29.82-88.02,44.81h1.51c-26.05-17.12-54.21-30.86-83.66-41.08v2.89c33.38-6.33,66.88-14.08,97.83-28.44,30.63-14.21,56.57-36.46,87.05-50.94,31.29-14.86,65.55-23.1,99.91-26.75,35.08-3.73,70.49-2.61,105.47,1.6,35.5,4.27,70.55,11.73,105.2,20.44,4.01,1.01,8.01,2.05,12.01,3.07,1.87.48,2.67-2.41.8-2.89-34.43-8.79-69.07-16.79-104.29-21.8-35.12-5-70.7-7.17-106.13-4.58s-68.31,9.21-100.16,22.06c-15.51,6.26-30.15,14.13-44.27,23.07-14.39,9.12-28.36,18.94-43.3,27.16-30.69,16.88-64.95,25.91-99.07,32.81-3.94.8-7.89,1.56-11.85,2.31-1.57.3-1.28,2.45,0,2.89,29.2,10.14,57.11,23.79,82.94,40.78.46.3,1.05.24,1.51,0,25.78-13.26,52.27-26.64,78.34-39.91,24.52-12.48,49.29-24.81,75.72-32.75,28.27-8.5,57.5-9.87,86.71-12.55,29.53-2.71,58.93-6.88,88.05-12.49,32.34-6.24,64.33-14.28,95.77-24.1,1.84-.57,1.05-3.47-.8-2.89Z"/>
  </g>
  <path class="st7" d="M1381.22,927.82c-3.05-.81-6.1-1.62-9.16-2.41-.76-.2-1.66.25-1.85,1.05s.24,1.63,1.05,1.85c3.06.79,6.11,1.6,9.16,2.41.76.2,1.66-.25,1.85-1.05s-.24-1.63-1.05-1.85h0Z"/>
  <path class="st7" d="M863,1006.8c-9.86,1.88-19.75,3.63-29.64,5.38-1.9.34-1.09,3.23.8,2.89,9.89-1.75,19.78-3.5,29.64-5.38,1.89-.36,1.09-3.25-.8-2.89h0Z"/>
  <g>
    <path class="st4" d="M1837.67,788.9c-67.21,11.27-132.71,40.81-199.99,56.72-33.88,8-68.9,12.6-102.35,21.71-41.08,11.19-78.94,28.93-118.23,43.81-14.93,5.65-30.09,10.9-45.44,15.71-27.83-7.25-56.01-13.85-84.52-18.77-.35.14-.7.29-1.05.43-9.83-1.67-19.7-3.14-29.59-4.38-16.63-2.07-33.36-3.47-50.19-3.98-4.2-.13-8.4-.2-12.61-.2,20.1-7.87,40.61-14.99,61.46-21.36,60.93-18.62,124.68-30.77,189.24-35.99,10.58-4.41,21.16-8.81,31.75-13.22,25.66-10.69,51.32-21.38,76.98-32.06,29.09-12.11,58.76-24.39,90.86-28.58,35.77-4.68,72.18.96,107.75,6.58,28.64,4.53,57.29,9.06,85.93,13.58Z"/>
    <path class="st7" d="M1837.27,787.45c-42.31,7.16-83.02,21.11-123.71,34.38-20.6,6.72-41.26,13.31-62.22,18.83-20.98,5.52-42.28,9.54-63.57,13.61-21.49,4.11-42.95,8.45-63.91,14.81-20.33,6.17-40.15,13.84-59.84,21.77s-39.78,16.25-60,23.53c-5.03,1.81-10.07,3.57-15.13,5.28s-10.51,3.99-15.85,5.19c-2.73.61-5.58-.64-8.24-1.32-2.83-.72-5.66-1.44-8.5-2.15-5.27-1.31-10.55-2.6-15.84-3.84-11-2.59-22.05-5.02-33.13-7.23-5.34-1.06-10.7-2.08-16.06-3.03-2.34-.42-4.34-.38-6.61-.53-2.86-.19-5.78-.95-8.61-1.39-21.63-3.35-43.43-5.7-65.3-6.56-5.67-.22-11.35-.35-17.03-.35l.4,2.95c39.94-15.6,81.05-28.17,122.86-37.72,20.99-4.79,42.15-8.82,63.42-12.09,10.85-1.67,21.73-3.13,32.64-4.4,5.32-.62,10.65-1.19,15.98-1.71,2.46-.24,4.93-.47,7.39-.69,2.66-.24,5.61-.12,8.21-.71,2.24-.51,4.53-1.83,6.67-2.72,2.74-1.14,5.49-2.28,8.23-3.43,5.1-2.12,10.19-4.24,15.29-6.36,10.26-4.27,20.52-8.55,30.78-12.82,20.13-8.38,40.22-16.86,60.4-25.12,18.88-7.73,38.04-15,57.95-19.67,21.43-5.02,43.3-6.23,65.23-4.92s44.09,4.87,65.99,8.34c21.9,3.46,43.81,6.93,65.71,10.39,5.48.86,10.95,1.73,16.43,2.59,1.89.3,2.7-2.59.8-2.89-22.12-3.49-44.23-6.99-66.34-10.48s-43.22-7.15-64.99-9.46c-21.57-2.29-43.39-2.99-64.93.03-20.53,2.88-40.4,9.12-59.73,16.48-20.05,7.63-39.75,16.19-59.55,24.43-20.69,8.62-41.38,17.24-62.07,25.85-5.06,2.11-10.1,4.59-15.28,6.36-2.76.95-5.9.86-8.79,1.12-2.67.24-5.34.49-8.01.75-10.73,1.06-21.43,2.31-32.11,3.75-21.23,2.86-42.35,6.47-63.32,10.83-42.29,8.8-83.97,20.65-124.5,35.62-5.07,1.87-10.12,3.8-15.15,5.76-1.5.58-1.4,2.94.4,2.95,22.44.04,44.88,1.79,67.13,4.74,5.84.77,11.67,1.63,17.49,2.55,2.4.38,4.96,1.12,7.38,1.21.98.04,1.92-.18,2.91-.11,1.44.11,2.92.52,4.33.77,11.13,2.02,22.22,4.28,33.26,6.73s21.59,4.98,32.34,7.68c2.63.66,5.26,1.33,7.89,2.01,2.35.61,4.45,1.59,6.82.88,5.13-1.54,10.2-3.27,15.28-4.98,20.53-6.91,40.68-14.79,60.75-22.92,19.82-8.03,39.63-16.15,59.88-23.05,20.45-6.97,41.3-12.23,62.47-16.51,21.55-4.35,43.25-8,64.67-12.98,21.08-4.9,41.82-11.13,62.42-17.71,40.89-13.05,81.46-27.69,123.56-36.46,5.25-1.09,10.51-2.08,15.8-2.98,1.9-.32,1.09-3.21-.8-2.89Z"/>
  </g>
  <path class="st3" d="M839.01,943.5h182.94c-17.03,10.55-33.09,22.24-51.03,31.67-14.3,7.52-29.53,13.47-45.3,18.4-26.23-18.58-55.33-35.28-86.61-50.07Z"/>
  <path class="st1" d="M1255.16,878.59c-20.85,6.37-41.36,13.49-61.46,21.36-33.99-.09-68.27,3.75-100.36,12.55h-330.7c-40.12-13.89-82.52-25.18-126.14-33.85v-.06h618.66Z"/>
  <g>
    <path class="st10" d="M1476.15,829.38c-10.59,4.41-21.17,8.81-31.75,13.22-64.56,5.22-128.31,17.37-189.24,35.99h-234.51c70.79-9.32,139.72-32.48,201.79-67.76,16.36-9.31,32.32-19.48,49.64-26.86,56.62-24.15,126.17-14.67,174.26,23.75,9.46,7.57,19.13,16.51,29.81,21.66Z"/>
    <path class="st6" d="M1475.75,827.93c-6.96,2.9-13.93,5.8-20.89,8.7-1.67.7-3.34,1.39-5.01,2.09-2.01.84-4.16,2.07-6.32,2.45-3.54.63-7.31.62-10.9.96-14.34,1.35-28.66,3.04-42.92,5.07-28.99,4.12-57.78,9.65-86.23,16.58-14.13,3.44-28.18,7.24-42.12,11.38-2.95.88-5.32,1.93-8.3,1.93h-226.22c-1.79,0-3.72-.21-5.5,0-.22.03-.47,0-.69,0v3c33.5-4.44,66.57-11.87,98.72-22.27,32-10.36,63.08-23.6,92.7-39.54,15.25-8.21,29.87-17.51,45.2-25.56,13.76-7.22,28.12-12.92,43.29-16.34,28.59-6.44,58.79-5.29,86.92,2.83,14.07,4.06,27.62,9.88,40.19,17.39,6.36,3.8,12.46,8.03,18.23,12.68,6.3,5.07,12.39,10.43,19.01,15.1,3.34,2.36,6.81,4.5,10.48,6.3,1.73.85,3.25-1.74,1.51-2.59-14.59-7.16-25.85-19.45-39.14-28.57-11.9-8.16-24.88-14.71-38.44-19.61-27.29-9.87-56.99-12.95-85.73-8.93-14.42,2.02-28.54,5.88-41.95,11.57-16.04,6.81-30.89,15.99-45.94,24.69-29.65,17.14-60.84,31.56-93.14,42.97-32.11,11.34-65.26,19.74-98.91,25.02-4.33.68-8.66,1.3-13,1.88-1.85.24-2,3,0,3h229.6c1.52,0,3.09.11,4.61,0,2.43-.17,4.96-1.35,7.29-2.04,7.03-2.09,14.09-4.09,21.17-6,28.22-7.61,56.81-13.82,85.63-18.63,14.65-2.44,29.35-4.52,44.1-6.24,7.24-.84,14.49-1.59,21.74-2.26,3.32-.3,7.24-.08,10.41-1.05,3.68-1.13,7.3-3.04,10.86-4.52,6.82-2.84,13.65-5.68,20.47-8.52,1.76-.73.99-3.64-.8-2.89Z"/>
  </g>
  <path class="st7" d="M1020.25,877.14c-.16.02-.32.05-.48.07l.4-.05c-.32.04-.64.08-.96.12-.21,0-.4.04-.58.13-.19.06-.35.16-.48.31-.15.14-.25.3-.31.48-.09.18-.14.37-.13.58l.05.4c.07.25.2.47.39.66l.3.23c.23.14.49.2.76.2.61-.08,1.23-.15,1.84-.24.2-.05.37-.14.51-.27.16-.11.29-.25.39-.42.11-.17.17-.36.18-.56.04-.2.04-.4-.03-.6l-.15-.36c-.13-.23-.31-.4-.54-.54l-.36-.15c-.27-.07-.53-.07-.8,0h0Z"/>
  <g>
    <path class="st8" d="M798.44,878.59h-161.94v.06c-34.77-6.93-70.31-12.18-106.08-15.77-78.82-7.9-158.72-8.23-238.04-2.88,28.47-8.45,56.67-17.97,82.37-32.72,22.36-12.83,42.56-29.48,66.09-39.99,37.68-16.84,80.47-16.54,121.73-15.94,19.66.28,39.52.59,58.58,5.38,66.58,16.74,111.13,84.2,177.29,101.86Z"/>
    <path class="st6" d="M798.44,877.09h-161.94c-.81,0-1.5.69-1.5,1.5v.06l1.9-1.45c-43.87-8.72-88.26-14.66-132.85-18.18s-90.35-4.71-135.56-3.85c-25.39.49-50.77,1.62-76.11,3.33l.4,2.95c18.91-5.62,37.72-11.72,55.85-19.53,18.14-7.81,34.8-17.83,51.22-28.74s32.31-21.44,50.56-28.18c18.18-6.71,37.45-9.89,56.72-11.29,19.57-1.42,39.22-1.11,58.82-.81,20.31.31,40.83.97,60.43,6.83,30.38,9.08,56.17,28.56,81.03,47.53,24.77,18.9,49.88,38.63,79.52,49.3,3.65,1.31,7.35,2.47,11.1,3.48,1.87.5,2.66-2.39.8-2.89-30.9-8.34-57.1-27.5-82.21-46.61-25.02-19.04-50.13-39.15-79.83-50.44-17.75-6.74-36.47-9.1-55.35-9.83-19.88-.76-39.91-1-59.8-.32-19.34.66-38.78,2.57-57.52,7.57s-35.64,13.55-51.87,23.93-32.23,21.87-49.66,30.67c-18.06,9.12-37.14,16.03-56.41,22.1-4.72,1.49-9.46,2.92-14.2,4.33-1.56.46-1.35,3.06.4,2.95,45-3.02,90.14-4.24,135.23-3.28,44.63.96,89.25,4,133.54,9.66,25.11,3.21,50.12,7.28,74.95,12.21.94.19,1.9-.42,1.9-1.45v-.06l-1.5,1.5h161.94c1.93,0,1.93-3,0-3Z"/>
  </g>
  <path class="st7" d="M272.9,867.23c6.64-1.89,13.26-3.82,19.88-5.78,1.85-.55,1.06-3.44-.8-2.89-6.62,1.96-13.24,3.89-19.88,5.78-1.85.53-1.07,3.42.8,2.89h0Z"/>
  <path class="st7" d="M800.85,877.67c-.67-.17-1.34-.34-2.01-.53-.37-.11-.82-.04-1.16.15-.17.09-.32.22-.42.39-.13.14-.22.31-.27.51-.09.38-.07.81.15,1.16s.51.58.9.69c.67.19,1.34.36,2.01.53.38.1.81.05,1.16-.15.17-.09.32-.22.42-.39.13-.14.22-.31.27-.51.09-.38.07-.81-.15-1.16s-.51-.59-.9-.69h0Z"/>
  <path class="st9" d="M1093.34,912.5c-20.31,5.57-39.75,13.13-57.68,22.95-4.67,2.56-9.23,5.26-13.71,8.05h-182.94c-24.24-11.48-49.8-21.81-76.37-31h330.7Z"/>
</svg>